%
M48
M72
T01C0.0170
T02C0.0236
T03C0.0276
T04C0.0320
T05C0.0400
T06C0.0866
%
T01
X3920Y1086
X4550Y1086
X5062Y1519
X5062Y1952
X5849Y2857
X6204Y4078
X3723Y5141
X4747Y5928
X5377Y6637
X6479Y6086
X7778Y6046
X8054Y5298
X8408Y5062
X11007Y4393
X11794Y4944
X12936Y4944
X13526Y4904
X13566Y4432
X12975Y5377
X13526Y6046
X9471Y6086
X14314Y3487
X12975Y3172
X14353Y2739
X15416Y3526
X11794Y2188
X12227Y1519
X9156Y2778
X8881Y1873
X7542Y1519
X7227Y534
T02
X9117Y5062
T03
X14550Y1873
X14550Y1086
T04
X14247Y6479
X15247Y6479
T05
X12180Y6440
X11180Y6440
X10180Y6440
T06
X15928Y4708
M30
