G75*
%MOIN*%
%OFA0B0*%
%FSLAX24Y24*%
%IPPOS*%
%LPD*%
%AMOC8*
5,1,8,0,0,1.08239X$1,22.5*
%
%ADD10C,0.0600*%
%ADD11C,0.0740*%
%ADD12C,0.0570*%
%ADD13R,0.0310X0.0310*%
%ADD14C,0.0160*%
%ADD15C,0.0310*%
%ADD16C,0.0376*%
D10*
X010180Y006440D03*
X011180Y006440D03*
X012180Y006440D03*
D11*
X014247Y006479D03*
X015247Y006479D03*
D12*
X014550Y001873D03*
X014550Y001086D03*
D13*
X012975Y003172D03*
X006204Y004078D03*
D14*
X003330Y007037D02*
X003330Y000410D01*
X016879Y000410D01*
X016879Y007037D01*
X013570Y007037D01*
X013819Y006787D01*
X013952Y006920D01*
X014143Y006999D01*
X014350Y006999D01*
X014541Y006920D01*
X014688Y006774D01*
X014747Y006631D01*
X014806Y006774D01*
X014952Y006920D01*
X015143Y006999D01*
X015350Y006999D01*
X015541Y006920D01*
X015688Y006774D01*
X015767Y006583D01*
X015767Y006376D01*
X015688Y006185D01*
X015541Y006038D01*
X015350Y005959D01*
X015143Y005959D01*
X014952Y006038D01*
X014806Y006185D01*
X014747Y006327D01*
X014688Y006185D01*
X014541Y006038D01*
X014350Y005959D01*
X014143Y005959D01*
X013952Y006038D01*
X013806Y006185D01*
X013779Y006249D01*
X013707Y006249D01*
X013572Y006384D01*
X013234Y006722D01*
X012535Y006722D01*
X012561Y006695D01*
X012630Y006529D01*
X012630Y006350D01*
X012561Y006185D01*
X012435Y006058D01*
X012270Y005990D01*
X012090Y005990D01*
X012066Y006000D01*
X010897Y004832D01*
X009365Y004832D01*
X009309Y004775D01*
X009184Y004724D01*
X009050Y004724D01*
X008925Y004775D01*
X008830Y004870D01*
X008779Y004995D01*
X008779Y005129D01*
X008830Y005253D01*
X008925Y005349D01*
X009050Y005400D01*
X009184Y005400D01*
X009309Y005349D01*
X009365Y005292D01*
X010707Y005292D01*
X011478Y006063D01*
X011432Y006029D01*
X011364Y005995D01*
X011292Y005972D01*
X011218Y005960D01*
X011200Y005960D01*
X011200Y006420D01*
X011200Y006460D01*
X011660Y006460D01*
X011660Y006478D01*
X011648Y006552D01*
X011625Y006624D01*
X011591Y006691D01*
X011569Y006722D01*
X011825Y006722D01*
X011799Y006695D01*
X011730Y006529D01*
X011730Y006350D01*
X011740Y006325D01*
X011557Y006142D01*
X011591Y006188D01*
X011625Y006256D01*
X011648Y006327D01*
X011660Y006402D01*
X011660Y006420D01*
X011200Y006420D01*
X011160Y006420D01*
X010700Y006420D01*
X010700Y006402D01*
X010712Y006327D01*
X010735Y006256D01*
X010769Y006188D01*
X010814Y006127D01*
X010867Y006074D01*
X010928Y006029D01*
X010996Y005995D01*
X011068Y005972D01*
X011142Y005960D01*
X011160Y005960D01*
X011160Y006420D01*
X011160Y006460D01*
X010700Y006460D01*
X010700Y006478D01*
X010712Y006552D01*
X010735Y006624D01*
X010769Y006691D01*
X010791Y006722D01*
X010535Y006722D01*
X010561Y006695D01*
X010630Y006529D01*
X010630Y006350D01*
X010561Y006185D01*
X010435Y006058D01*
X010270Y005990D01*
X010090Y005990D01*
X009925Y006058D01*
X009799Y006185D01*
X009730Y006350D01*
X009730Y006529D01*
X009799Y006695D01*
X009825Y006722D01*
X005787Y006722D01*
X005682Y006616D01*
X005682Y006576D01*
X005635Y006464D01*
X005550Y006378D01*
X005438Y006332D01*
X005316Y006332D01*
X005204Y006378D01*
X005118Y006464D01*
X005072Y006576D01*
X005072Y006697D01*
X005118Y006809D01*
X005204Y006895D01*
X005316Y006942D01*
X005357Y006942D01*
X005452Y007037D01*
X003330Y007037D01*
X003330Y006996D02*
X005410Y006996D01*
X005692Y006952D02*
X013330Y006952D01*
X013802Y006479D01*
X014247Y006479D01*
X014727Y006679D02*
X014767Y006679D01*
X014869Y006837D02*
X014625Y006837D01*
X014359Y006996D02*
X015135Y006996D01*
X015359Y006996D02*
X016879Y006996D01*
X016879Y006837D02*
X015625Y006837D01*
X015727Y006679D02*
X016879Y006679D01*
X016879Y006520D02*
X015767Y006520D01*
X015761Y006362D02*
X016879Y006362D01*
X016879Y006203D02*
X015695Y006203D01*
X015548Y006045D02*
X016879Y006045D01*
X016879Y005886D02*
X011951Y005886D01*
X011793Y005728D02*
X016879Y005728D01*
X016879Y005569D02*
X011634Y005569D01*
X011476Y005411D02*
X016879Y005411D01*
X016879Y005252D02*
X016321Y005252D01*
X016304Y005270D02*
X016060Y005371D01*
X015796Y005371D01*
X015552Y005270D01*
X015366Y005083D01*
X015265Y004839D01*
X015265Y004576D01*
X015366Y004332D01*
X015552Y004145D01*
X015796Y004044D01*
X016060Y004044D01*
X016304Y004145D01*
X016490Y004332D01*
X016591Y004576D01*
X016591Y004839D01*
X016490Y005083D01*
X016304Y005270D01*
X016480Y005094D02*
X016879Y005094D01*
X016879Y004935D02*
X016552Y004935D01*
X016591Y004777D02*
X016879Y004777D01*
X016879Y004618D02*
X016591Y004618D01*
X016543Y004460D02*
X016879Y004460D01*
X016879Y004301D02*
X016459Y004301D01*
X016297Y004143D02*
X016879Y004143D01*
X016879Y003984D02*
X006623Y003984D01*
X006509Y004098D02*
X006509Y004295D01*
X006421Y004383D01*
X005986Y004383D01*
X005899Y004295D01*
X005899Y003861D01*
X005986Y003773D01*
X006183Y003773D01*
X007014Y002942D01*
X012683Y002942D01*
X012758Y002867D01*
X013192Y002867D01*
X013280Y002955D01*
X013280Y003389D01*
X013192Y003477D01*
X012758Y003477D01*
X012683Y003402D01*
X007204Y003402D01*
X006509Y004098D01*
X006509Y004143D02*
X015559Y004143D01*
X015397Y004301D02*
X006502Y004301D01*
X006204Y004078D02*
X007109Y003172D01*
X012975Y003172D01*
X013280Y003192D02*
X016879Y003192D01*
X016879Y003350D02*
X013280Y003350D01*
X013280Y003033D02*
X016879Y003033D01*
X016879Y002875D02*
X013200Y002875D01*
X012751Y002875D02*
X003330Y002875D01*
X003330Y003033D02*
X006923Y003033D01*
X006764Y003192D02*
X003330Y003192D01*
X003330Y003350D02*
X006606Y003350D01*
X006447Y003509D02*
X003330Y003509D01*
X003330Y003667D02*
X006289Y003667D01*
X005934Y003826D02*
X003330Y003826D01*
X003330Y003984D02*
X005899Y003984D01*
X005899Y004143D02*
X003330Y004143D01*
X003330Y004301D02*
X005905Y004301D01*
X006781Y003826D02*
X016879Y003826D01*
X016879Y003667D02*
X006940Y003667D01*
X007098Y003509D02*
X016879Y003509D01*
X016879Y002716D02*
X003330Y002716D01*
X003330Y002558D02*
X016879Y002558D01*
X016879Y002399D02*
X003330Y002399D01*
X003330Y002241D02*
X014265Y002241D01*
X014247Y002228D02*
X014195Y002176D01*
X014152Y002117D01*
X014119Y002051D01*
X014097Y001982D01*
X014085Y001910D01*
X014085Y001873D01*
X014550Y001873D01*
X014550Y002338D01*
X014513Y002338D01*
X014441Y002326D01*
X014372Y002304D01*
X014306Y002271D01*
X014247Y002228D01*
X014135Y002082D02*
X003330Y002082D01*
X003330Y001924D02*
X014087Y001924D01*
X014085Y001873D02*
X014085Y001836D01*
X014097Y001764D01*
X014119Y001694D01*
X014152Y001629D01*
X014195Y001570D01*
X014247Y001518D01*
X014306Y001475D01*
X014328Y001464D01*
X014304Y001454D01*
X014181Y001332D01*
X014115Y001172D01*
X014115Y000999D01*
X014181Y000839D01*
X014304Y000717D01*
X014464Y000651D01*
X014637Y000651D01*
X014796Y000717D01*
X014919Y000839D01*
X014985Y000999D01*
X014985Y001172D01*
X014919Y001332D01*
X014796Y001454D01*
X014772Y001464D01*
X014794Y001475D01*
X014853Y001518D01*
X014905Y001570D01*
X014948Y001629D01*
X014981Y001694D01*
X015004Y001764D01*
X015015Y001836D01*
X015015Y001873D01*
X015015Y001910D01*
X015004Y001982D01*
X014981Y002051D01*
X014948Y002117D01*
X014905Y002176D01*
X014853Y002228D01*
X014794Y002271D01*
X014729Y002304D01*
X014659Y002326D01*
X014587Y002338D01*
X014550Y002338D01*
X014550Y001873D01*
X014550Y001873D01*
X014550Y001873D01*
X014085Y001873D01*
X014096Y001765D02*
X003330Y001765D01*
X003330Y001607D02*
X014169Y001607D01*
X014297Y001448D02*
X003330Y001448D01*
X003330Y001290D02*
X014164Y001290D01*
X014115Y001131D02*
X003330Y001131D01*
X003330Y000973D02*
X014126Y000973D01*
X014206Y000814D02*
X003330Y000814D01*
X003330Y000656D02*
X014452Y000656D01*
X014649Y000656D02*
X016879Y000656D01*
X016879Y000814D02*
X014894Y000814D01*
X014974Y000973D02*
X016879Y000973D01*
X016879Y001131D02*
X014985Y001131D01*
X014936Y001290D02*
X016879Y001290D01*
X016879Y001448D02*
X014803Y001448D01*
X014931Y001607D02*
X016879Y001607D01*
X016879Y001765D02*
X015004Y001765D01*
X015015Y001873D02*
X014550Y001873D01*
X015015Y001873D01*
X015013Y001924D02*
X016879Y001924D01*
X016879Y002082D02*
X014965Y002082D01*
X014835Y002241D02*
X016879Y002241D01*
X014550Y002241D02*
X014550Y002241D01*
X014550Y002082D02*
X014550Y002082D01*
X014550Y001924D02*
X014550Y001924D01*
X014550Y001873D02*
X014550Y001873D01*
X016879Y000497D02*
X003330Y000497D01*
X003330Y004460D02*
X015313Y004460D01*
X015265Y004618D02*
X003330Y004618D01*
X003330Y004777D02*
X008924Y004777D01*
X008804Y004935D02*
X003330Y004935D01*
X003330Y005094D02*
X008779Y005094D01*
X008830Y005252D02*
X003330Y005252D01*
X003330Y005411D02*
X010825Y005411D01*
X010984Y005569D02*
X003330Y005569D01*
X003330Y005728D02*
X011142Y005728D01*
X011301Y005886D02*
X003330Y005886D01*
X003330Y006045D02*
X009959Y006045D01*
X009791Y006203D02*
X003330Y006203D01*
X003330Y006362D02*
X005244Y006362D01*
X005510Y006362D02*
X009730Y006362D01*
X009730Y006520D02*
X005659Y006520D01*
X005744Y006679D02*
X009792Y006679D01*
X010568Y006679D02*
X010763Y006679D01*
X010707Y006520D02*
X010630Y006520D01*
X010630Y006362D02*
X010706Y006362D01*
X010762Y006203D02*
X010569Y006203D01*
X010401Y006045D02*
X010908Y006045D01*
X011160Y006045D02*
X011200Y006045D01*
X011200Y006203D02*
X011160Y006203D01*
X011160Y006362D02*
X011200Y006362D01*
X011598Y006203D02*
X011618Y006203D01*
X011654Y006362D02*
X011730Y006362D01*
X011730Y006520D02*
X011653Y006520D01*
X011597Y006679D02*
X011792Y006679D01*
X012180Y006440D02*
X010802Y005062D01*
X009117Y005062D01*
X009310Y004777D02*
X015265Y004777D01*
X015305Y004935D02*
X011000Y004935D01*
X011159Y005094D02*
X015376Y005094D01*
X015535Y005252D02*
X011317Y005252D01*
X011452Y006045D02*
X011459Y006045D01*
X012401Y006045D02*
X013946Y006045D01*
X013798Y006203D02*
X012569Y006203D01*
X012630Y006362D02*
X013594Y006362D01*
X013436Y006520D02*
X012630Y006520D01*
X012568Y006679D02*
X013277Y006679D01*
X013770Y006837D02*
X013869Y006837D01*
X013611Y006996D02*
X014135Y006996D01*
X014695Y006203D02*
X014798Y006203D01*
X014946Y006045D02*
X014548Y006045D01*
X005692Y006952D02*
X005377Y006637D01*
X005095Y006520D02*
X003330Y006520D01*
X003330Y006679D02*
X005072Y006679D01*
X005146Y006837D02*
X003330Y006837D01*
D15*
X004747Y005928D03*
X005377Y006637D03*
X006479Y006086D03*
X007778Y006046D03*
X008054Y005298D03*
X008408Y005062D03*
X009471Y006086D03*
X011794Y004944D03*
X012936Y004944D03*
X013526Y004904D03*
X013566Y004432D03*
X012975Y005377D03*
X013526Y006046D03*
X011007Y004393D03*
X014314Y003487D03*
X015416Y003526D03*
X014353Y002739D03*
X012227Y001519D03*
X011794Y002188D03*
X009156Y002778D03*
X008881Y001873D03*
X007542Y001519D03*
X007227Y000534D03*
X005062Y001519D03*
X005062Y001952D03*
X004550Y001086D03*
X003920Y001086D03*
X005849Y002857D03*
X003723Y005141D03*
D16*
X009117Y005062D03*
M02*
