G75*
%MOIN*%
%OFA0B0*%
%FSLAX24Y24*%
%IPPOS*%
%LPD*%
%AMOC8*
5,1,8,0,0,1.08239X$1,22.5*
%
%ADD10C,0.0600*%
%ADD11C,0.0740*%
%ADD12C,0.0570*%
%ADD13R,0.0310X0.0310*%
%ADD14C,0.0160*%
%ADD15C,0.0310*%
%ADD16C,0.0120*%
D10*
X010188Y006440D03*
X011188Y006440D03*
X012188Y006440D03*
D11*
X014247Y006479D03*
X015247Y006479D03*
D12*
X014550Y001873D03*
X014550Y001086D03*
D13*
X012975Y003172D03*
X006204Y004078D03*
D14*
X003330Y007037D02*
X003330Y000410D01*
X016879Y000410D01*
X016879Y007037D01*
X003330Y007037D01*
X003330Y006996D02*
X014135Y006996D01*
X014143Y006999D02*
X013952Y006920D01*
X013806Y006774D01*
X013727Y006583D01*
X013727Y006376D01*
X013806Y006185D01*
X013952Y006038D01*
X014143Y005959D01*
X014350Y005959D01*
X014541Y006038D01*
X014688Y006185D01*
X014747Y006327D01*
X014806Y006185D01*
X014952Y006038D01*
X015143Y005959D01*
X015350Y005959D01*
X015541Y006038D01*
X015688Y006185D01*
X015767Y006376D01*
X015767Y006583D01*
X015688Y006774D01*
X015541Y006920D01*
X015350Y006999D01*
X015143Y006999D01*
X014952Y006920D01*
X014806Y006774D01*
X014747Y006631D01*
X014688Y006774D01*
X014541Y006920D01*
X014350Y006999D01*
X014143Y006999D01*
X014359Y006996D02*
X015135Y006996D01*
X015359Y006996D02*
X016879Y006996D01*
X016879Y006837D02*
X015625Y006837D01*
X015727Y006679D02*
X016879Y006679D01*
X016879Y006520D02*
X015767Y006520D01*
X015761Y006362D02*
X016879Y006362D01*
X016879Y006203D02*
X015695Y006203D01*
X015548Y006045D02*
X016879Y006045D01*
X016879Y005886D02*
X003330Y005886D01*
X003330Y005728D02*
X016879Y005728D01*
X016879Y005569D02*
X003330Y005569D01*
X003330Y005411D02*
X016879Y005411D01*
X016879Y005252D02*
X016321Y005252D01*
X016304Y005270D02*
X016060Y005371D01*
X015796Y005371D01*
X015552Y005270D01*
X015366Y005083D01*
X015265Y004839D01*
X015265Y004576D01*
X015366Y004332D01*
X015552Y004145D01*
X015796Y004044D01*
X016060Y004044D01*
X016304Y004145D01*
X016490Y004332D01*
X016591Y004576D01*
X016591Y004839D01*
X016490Y005083D01*
X016304Y005270D01*
X016480Y005094D02*
X016879Y005094D01*
X016879Y004935D02*
X016552Y004935D01*
X016591Y004777D02*
X016879Y004777D01*
X016879Y004618D02*
X016591Y004618D01*
X016543Y004460D02*
X016879Y004460D01*
X016879Y004301D02*
X016459Y004301D01*
X016297Y004143D02*
X016879Y004143D01*
X016879Y003984D02*
X006623Y003984D01*
X006509Y004098D02*
X006509Y004295D01*
X006421Y004383D01*
X005986Y004383D01*
X005899Y004295D01*
X005899Y003861D01*
X005986Y003773D01*
X006183Y003773D01*
X007014Y002942D01*
X012683Y002942D01*
X012758Y002867D01*
X013192Y002867D01*
X013280Y002955D01*
X013280Y003389D01*
X013192Y003477D01*
X012758Y003477D01*
X012683Y003402D01*
X007204Y003402D01*
X006509Y004098D01*
X006509Y004143D02*
X015559Y004143D01*
X015397Y004301D02*
X006502Y004301D01*
X006204Y004078D02*
X007109Y003172D01*
X012975Y003172D01*
X013280Y003192D02*
X016879Y003192D01*
X016879Y003350D02*
X013280Y003350D01*
X013280Y003033D02*
X016879Y003033D01*
X016879Y002875D02*
X013200Y002875D01*
X012751Y002875D02*
X009531Y002875D01*
X009526Y002880D02*
X009575Y002831D01*
X009598Y002831D01*
X009936Y002493D01*
X010004Y002493D01*
X010117Y002446D01*
X010202Y002361D01*
X010249Y002249D01*
X010249Y002127D01*
X010202Y002015D01*
X010117Y001929D01*
X010004Y001883D01*
X009883Y001883D01*
X009771Y001929D01*
X009685Y002015D01*
X009639Y002127D01*
X009639Y002196D01*
X009488Y002347D01*
X009414Y002316D01*
X009293Y002316D01*
X009180Y002362D01*
X009095Y002448D01*
X009048Y002560D01*
X009048Y002682D01*
X009095Y002794D01*
X009180Y002880D01*
X009293Y002926D01*
X009414Y002926D01*
X009526Y002880D01*
X009713Y002716D02*
X016879Y002716D01*
X016879Y002558D02*
X009871Y002558D01*
X010164Y002399D02*
X016879Y002399D01*
X016879Y002241D02*
X014835Y002241D01*
X014853Y002228D02*
X014794Y002271D01*
X014729Y002304D01*
X014659Y002326D01*
X014587Y002338D01*
X014550Y002338D01*
X014513Y002338D01*
X014441Y002326D01*
X014372Y002304D01*
X014306Y002271D01*
X014247Y002228D01*
X014195Y002176D01*
X014152Y002117D01*
X014119Y002051D01*
X014097Y001982D01*
X014085Y001910D01*
X014085Y001873D01*
X014550Y001873D01*
X014550Y002338D01*
X014550Y001873D01*
X014550Y001873D01*
X014550Y001873D01*
X014085Y001873D01*
X014085Y001836D01*
X014097Y001764D01*
X014119Y001694D01*
X014152Y001629D01*
X014195Y001570D01*
X014247Y001518D01*
X014306Y001475D01*
X014328Y001464D01*
X014304Y001454D01*
X014181Y001332D01*
X014115Y001172D01*
X014115Y000999D01*
X014181Y000839D01*
X014304Y000717D01*
X014464Y000651D01*
X014637Y000651D01*
X014796Y000717D01*
X014919Y000839D01*
X014985Y000999D01*
X014985Y001172D01*
X014919Y001332D01*
X014796Y001454D01*
X014772Y001464D01*
X014794Y001475D01*
X014853Y001518D01*
X014905Y001570D01*
X014948Y001629D01*
X014981Y001694D01*
X015004Y001764D01*
X015015Y001836D01*
X015015Y001873D01*
X015015Y001910D01*
X015004Y001982D01*
X014981Y002051D01*
X014948Y002117D01*
X014905Y002176D01*
X014853Y002228D01*
X014550Y002241D02*
X014550Y002241D01*
X014550Y002082D02*
X014550Y002082D01*
X014550Y001924D02*
X014550Y001924D01*
X014550Y001873D02*
X015015Y001873D01*
X014550Y001873D01*
X014550Y001873D01*
X015013Y001924D02*
X016879Y001924D01*
X016879Y002082D02*
X014965Y002082D01*
X015004Y001765D02*
X016879Y001765D01*
X016879Y001607D02*
X014931Y001607D01*
X014803Y001448D02*
X016879Y001448D01*
X016879Y001290D02*
X014936Y001290D01*
X014985Y001131D02*
X016879Y001131D01*
X016879Y000973D02*
X014974Y000973D01*
X014894Y000814D02*
X016879Y000814D01*
X016879Y000656D02*
X014649Y000656D01*
X014452Y000656D02*
X003330Y000656D01*
X003330Y000814D02*
X014206Y000814D01*
X014126Y000973D02*
X003330Y000973D01*
X003330Y001131D02*
X014115Y001131D01*
X014164Y001290D02*
X003330Y001290D01*
X003330Y001448D02*
X014297Y001448D01*
X014169Y001607D02*
X003330Y001607D01*
X003330Y001765D02*
X014096Y001765D01*
X014087Y001924D02*
X010103Y001924D01*
X010230Y002082D02*
X014135Y002082D01*
X014265Y002241D02*
X010249Y002241D01*
X009785Y001924D02*
X003330Y001924D01*
X003330Y002082D02*
X009658Y002082D01*
X009594Y002241D02*
X003330Y002241D01*
X003330Y002399D02*
X009144Y002399D01*
X009049Y002558D02*
X003330Y002558D01*
X003330Y002716D02*
X009062Y002716D01*
X009175Y002875D02*
X003330Y002875D01*
X003330Y003033D02*
X006923Y003033D01*
X006764Y003192D02*
X003330Y003192D01*
X003330Y003350D02*
X006606Y003350D01*
X006447Y003509D02*
X003330Y003509D01*
X003330Y003667D02*
X006289Y003667D01*
X005934Y003826D02*
X003330Y003826D01*
X003330Y003984D02*
X005899Y003984D01*
X005899Y004143D02*
X003330Y004143D01*
X003330Y004301D02*
X005905Y004301D01*
X006781Y003826D02*
X016879Y003826D01*
X016879Y003667D02*
X006940Y003667D01*
X007098Y003509D02*
X016879Y003509D01*
X015313Y004460D02*
X003330Y004460D01*
X003330Y004618D02*
X015265Y004618D01*
X015265Y004777D02*
X003330Y004777D01*
X003330Y004935D02*
X015305Y004935D01*
X015376Y005094D02*
X003330Y005094D01*
X003330Y005252D02*
X015535Y005252D01*
X014946Y006045D02*
X014548Y006045D01*
X014695Y006203D02*
X014798Y006203D01*
X013946Y006045D02*
X012409Y006045D01*
X012443Y006058D02*
X012569Y006185D01*
X012638Y006350D01*
X012638Y006529D01*
X012569Y006695D01*
X012443Y006821D01*
X012277Y006890D01*
X012098Y006890D01*
X011933Y006821D01*
X011806Y006695D01*
X011738Y006529D01*
X011738Y006350D01*
X011806Y006185D01*
X011933Y006058D01*
X012098Y005990D01*
X012277Y005990D01*
X012443Y006058D01*
X012577Y006203D02*
X013798Y006203D01*
X013733Y006362D02*
X012638Y006362D01*
X012638Y006520D02*
X013727Y006520D01*
X013767Y006679D02*
X012576Y006679D01*
X012405Y006837D02*
X013869Y006837D01*
X014625Y006837D02*
X014869Y006837D01*
X014767Y006679D02*
X014727Y006679D01*
X011971Y006837D02*
X011458Y006837D01*
X011439Y006850D02*
X011372Y006885D01*
X011300Y006908D01*
X011226Y006920D01*
X011208Y006920D01*
X011208Y006460D01*
X011168Y006460D01*
X011168Y006920D01*
X011150Y006920D01*
X011075Y006908D01*
X011004Y006885D01*
X010936Y006850D01*
X010875Y006806D01*
X010822Y006753D01*
X010777Y006691D01*
X010743Y006624D01*
X010720Y006552D01*
X010708Y006478D01*
X010708Y006460D01*
X011168Y006460D01*
X011168Y006420D01*
X010708Y006420D01*
X010708Y006402D01*
X010720Y006327D01*
X010743Y006256D01*
X010777Y006188D01*
X010822Y006127D01*
X010875Y006074D01*
X010936Y006029D01*
X011004Y005995D01*
X011075Y005972D01*
X011150Y005960D01*
X011168Y005960D01*
X011168Y006420D01*
X011208Y006420D01*
X011208Y006460D01*
X011668Y006460D01*
X011668Y006478D01*
X011656Y006552D01*
X011633Y006624D01*
X011598Y006691D01*
X011554Y006753D01*
X011501Y006806D01*
X011439Y006850D01*
X011208Y006837D02*
X011168Y006837D01*
X010918Y006837D02*
X010405Y006837D01*
X010443Y006821D02*
X010277Y006890D01*
X010098Y006890D01*
X009933Y006821D01*
X009806Y006695D01*
X009738Y006529D01*
X009738Y006350D01*
X009806Y006185D01*
X009933Y006058D01*
X010098Y005990D01*
X010277Y005990D01*
X010443Y006058D01*
X010569Y006185D01*
X010638Y006350D01*
X010638Y006529D01*
X010569Y006695D01*
X010443Y006821D01*
X010576Y006679D02*
X010771Y006679D01*
X010715Y006520D02*
X010638Y006520D01*
X010638Y006362D02*
X010714Y006362D01*
X010770Y006203D02*
X010577Y006203D01*
X010409Y006045D02*
X010915Y006045D01*
X011168Y006045D02*
X011208Y006045D01*
X011208Y005960D02*
X011226Y005960D01*
X011300Y005972D01*
X011372Y005995D01*
X011439Y006029D01*
X011501Y006074D01*
X011554Y006127D01*
X011598Y006188D01*
X011633Y006256D01*
X011656Y006327D01*
X011668Y006402D01*
X011668Y006420D01*
X011208Y006420D01*
X011208Y005960D01*
X011460Y006045D02*
X011966Y006045D01*
X011799Y006203D02*
X011606Y006203D01*
X011661Y006362D02*
X011738Y006362D01*
X011738Y006520D02*
X011661Y006520D01*
X011605Y006679D02*
X011800Y006679D01*
X011208Y006679D02*
X011168Y006679D01*
X011168Y006520D02*
X011208Y006520D01*
X011208Y006362D02*
X011168Y006362D01*
X011168Y006203D02*
X011208Y006203D01*
X009966Y006045D02*
X003330Y006045D01*
X003330Y006203D02*
X009799Y006203D01*
X009738Y006362D02*
X003330Y006362D01*
X003330Y006520D02*
X009738Y006520D01*
X009800Y006679D02*
X003330Y006679D01*
X003330Y006837D02*
X009971Y006837D01*
X003330Y000497D02*
X016879Y000497D01*
D15*
X012227Y001519D03*
X011794Y002188D03*
X009944Y002188D03*
X009353Y002621D03*
X008999Y002818D03*
X008881Y001873D03*
X007542Y001519D03*
X007227Y000534D03*
X005062Y001519D03*
X005062Y001952D03*
X004550Y001086D03*
X003920Y001086D03*
X005849Y002857D03*
X008408Y005062D03*
X008054Y005298D03*
X007778Y006046D03*
X006479Y006086D03*
X004747Y005928D03*
X003723Y005141D03*
X009471Y006086D03*
X011794Y004944D03*
X012936Y004944D03*
X013526Y004904D03*
X013566Y004432D03*
X012975Y005377D03*
X013526Y006046D03*
X011007Y004393D03*
X014314Y003487D03*
X015416Y003526D03*
X014353Y002739D03*
D16*
X009944Y002188D02*
X009511Y002621D01*
X009353Y002621D01*
M02*
