G75*
%MOIN*%
%OFA0B0*%
%FSLAX24Y24*%
%IPPOS*%
%LPD*%
%AMOC8*
5,1,8,0,0,1.08239X$1,22.5*
%
%ADD10C,0.0000*%
%ADD11C,0.0030*%
%ADD12C,0.0080*%
%ADD13C,0.0160*%
%ADD14C,0.0020*%
%ADD15R,0.0160X0.0280*%
%ADD16C,0.0060*%
%ADD17C,0.0040*%
%ADD18C,0.0100*%
%ADD19C,0.0050*%
%ADD20C,0.0010*%
%ADD21R,0.0280X0.0160*%
D10*
X000180Y000180D02*
X000180Y007267D01*
X017109Y007267D01*
X017109Y000180D01*
X000180Y000180D01*
X015495Y004708D02*
X015497Y004749D01*
X015503Y004790D01*
X015513Y004830D01*
X015526Y004869D01*
X015543Y004906D01*
X015564Y004942D01*
X015588Y004976D01*
X015615Y005007D01*
X015644Y005035D01*
X015677Y005061D01*
X015711Y005083D01*
X015748Y005102D01*
X015786Y005117D01*
X015826Y005129D01*
X015866Y005137D01*
X015907Y005141D01*
X015949Y005141D01*
X015990Y005137D01*
X016030Y005129D01*
X016070Y005117D01*
X016108Y005102D01*
X016144Y005083D01*
X016179Y005061D01*
X016212Y005035D01*
X016241Y005007D01*
X016268Y004976D01*
X016292Y004942D01*
X016313Y004906D01*
X016330Y004869D01*
X016343Y004830D01*
X016353Y004790D01*
X016359Y004749D01*
X016361Y004708D01*
X016359Y004667D01*
X016353Y004626D01*
X016343Y004586D01*
X016330Y004547D01*
X016313Y004510D01*
X016292Y004474D01*
X016268Y004440D01*
X016241Y004409D01*
X016212Y004381D01*
X016179Y004355D01*
X016145Y004333D01*
X016108Y004314D01*
X016070Y004299D01*
X016030Y004287D01*
X015990Y004279D01*
X015949Y004275D01*
X015907Y004275D01*
X015866Y004279D01*
X015826Y004287D01*
X015786Y004299D01*
X015748Y004314D01*
X015712Y004333D01*
X015677Y004355D01*
X015644Y004381D01*
X015615Y004409D01*
X015588Y004440D01*
X015564Y004474D01*
X015543Y004510D01*
X015526Y004547D01*
X015513Y004586D01*
X015503Y004626D01*
X015497Y004667D01*
X015495Y004708D01*
D11*
X016568Y004721D02*
X016568Y004866D01*
X016616Y004915D01*
X016713Y004915D01*
X016761Y004866D01*
X016761Y004721D01*
X016858Y004721D02*
X016568Y004721D01*
X016616Y004620D02*
X016568Y004572D01*
X016568Y004427D01*
X016858Y004427D01*
X016858Y004572D01*
X016810Y004620D01*
X016616Y004620D01*
X016761Y004818D02*
X016858Y004915D01*
X016858Y005016D02*
X016858Y005113D01*
X016858Y005064D02*
X016664Y005064D01*
X016664Y005016D01*
X016568Y005064D02*
X016519Y005064D01*
X016664Y005212D02*
X016664Y005358D01*
X016713Y005406D01*
X016858Y005406D01*
X016810Y005507D02*
X016713Y005507D01*
X016664Y005555D01*
X016664Y005701D01*
X016906Y005701D01*
X016955Y005652D01*
X016955Y005604D01*
X016858Y005555D02*
X016858Y005701D01*
X016858Y005555D02*
X016810Y005507D01*
X016858Y005212D02*
X016664Y005212D01*
X016568Y006096D02*
X016761Y006096D01*
X016858Y006193D01*
X016761Y006290D01*
X016568Y006290D01*
X016616Y006391D02*
X016568Y006439D01*
X016568Y006536D01*
X016616Y006585D01*
X016810Y006391D01*
X016858Y006439D01*
X016858Y006536D01*
X016810Y006585D01*
X016616Y006585D01*
X016810Y006686D02*
X016810Y006734D01*
X016858Y006734D01*
X016858Y006686D01*
X016810Y006686D01*
X016858Y006833D02*
X016664Y007026D01*
X016616Y007026D01*
X016568Y006978D01*
X016568Y006881D01*
X016616Y006833D01*
X016858Y006833D02*
X016858Y007026D01*
X016810Y006391D02*
X016616Y006391D01*
X012258Y005558D02*
X012258Y005510D01*
X012209Y005510D01*
X012209Y005558D01*
X012258Y005558D01*
X012108Y005510D02*
X011963Y005510D01*
X011915Y005558D01*
X011915Y005655D01*
X011963Y005703D01*
X012108Y005703D01*
X011813Y005655D02*
X011813Y005607D01*
X011620Y005607D01*
X011620Y005655D02*
X011668Y005703D01*
X011765Y005703D01*
X011813Y005655D01*
X011620Y005655D02*
X011620Y005558D01*
X011668Y005510D01*
X011765Y005510D01*
X011520Y005703D02*
X011471Y005703D01*
X011374Y005607D01*
X011374Y005703D02*
X011374Y005510D01*
X010979Y005510D02*
X010882Y005607D01*
X010930Y005607D02*
X010785Y005607D01*
X010930Y005607D02*
X010979Y005655D01*
X010979Y005752D01*
X010930Y005800D01*
X010785Y005800D01*
X010785Y005510D01*
X010685Y005510D02*
X010589Y005510D01*
X010637Y005510D02*
X010637Y005800D01*
X010589Y005800D02*
X010685Y005800D01*
X016568Y004277D02*
X016568Y004180D01*
X016616Y004132D01*
X016713Y004229D02*
X016713Y004277D01*
X016761Y004326D01*
X016810Y004326D01*
X016858Y004277D01*
X016858Y004180D01*
X016810Y004132D01*
X016713Y004277D02*
X016664Y004326D01*
X016616Y004326D01*
X016568Y004277D01*
X013477Y002723D02*
X013429Y002771D01*
X013380Y002723D01*
X013380Y002626D01*
X013332Y002578D01*
X013284Y002626D01*
X013284Y002771D01*
X013477Y002723D02*
X013477Y002578D01*
X013477Y002476D02*
X013187Y002476D01*
X013284Y002476D02*
X013284Y002331D01*
X013332Y002283D01*
X013429Y002283D01*
X013477Y002331D01*
X013477Y002476D01*
X013477Y002182D02*
X013332Y002182D01*
X013284Y002133D01*
X013284Y001988D01*
X013477Y001988D01*
X013477Y001887D02*
X013477Y001742D01*
X013429Y001694D01*
X013380Y001742D01*
X013380Y001887D01*
X013332Y001887D02*
X013477Y001887D01*
X013332Y001887D02*
X013284Y001839D01*
X013284Y001742D01*
X013005Y001671D02*
X013005Y001574D01*
X013005Y001623D02*
X012811Y001623D01*
X012811Y001574D01*
X012714Y001623D02*
X012666Y001623D01*
X012714Y001473D02*
X013005Y001473D01*
X012908Y001376D01*
X013005Y001280D01*
X012714Y001280D01*
X012860Y001178D02*
X012908Y001178D01*
X012908Y000985D01*
X012956Y000985D02*
X012860Y000985D01*
X012811Y001033D01*
X012811Y001130D01*
X012860Y001178D01*
X013005Y001130D02*
X013005Y001033D01*
X012956Y000985D01*
X012956Y000884D02*
X012763Y000884D01*
X012714Y000835D01*
X012714Y000690D01*
X013005Y000690D01*
X013005Y000835D01*
X012956Y000884D01*
X013187Y000908D02*
X013187Y000956D01*
X013477Y000956D01*
X013477Y000908D02*
X013477Y001005D01*
X013429Y001104D02*
X013332Y001104D01*
X013284Y001153D01*
X013284Y001249D01*
X013332Y001298D01*
X013380Y001298D01*
X013380Y001104D01*
X013429Y001104D02*
X013477Y001153D01*
X013477Y001249D01*
X013477Y001399D02*
X013187Y001399D01*
X013332Y001399D02*
X013332Y001592D01*
X013187Y001592D02*
X013477Y001592D01*
X013005Y001867D02*
X012956Y001819D01*
X012763Y001819D01*
X012811Y001771D02*
X012811Y001867D01*
X012811Y001967D02*
X012811Y002064D01*
X012763Y002015D02*
X012956Y002015D01*
X013005Y002064D01*
X013187Y000807D02*
X013477Y000807D01*
X013477Y000662D01*
X013429Y000613D01*
X013332Y000613D01*
X013284Y000662D01*
X013284Y000807D01*
X013005Y000541D02*
X012956Y000589D01*
X012908Y000589D01*
X012860Y000541D01*
X012860Y000492D01*
X012860Y000541D02*
X012811Y000589D01*
X012763Y000589D01*
X012714Y000541D01*
X012714Y000444D01*
X012763Y000396D01*
X012956Y000396D02*
X013005Y000444D01*
X013005Y000541D01*
X013187Y000513D02*
X013187Y000417D01*
X013187Y000465D02*
X013477Y000465D01*
X013477Y000417D02*
X013477Y000513D01*
D12*
X013841Y000692D02*
X013841Y000298D01*
X016912Y000298D01*
X016912Y002660D01*
X013841Y002660D01*
X013841Y002267D01*
X014550Y002267D01*
X011794Y003369D02*
X011794Y003448D01*
X011010Y003673D02*
X010910Y003673D01*
X010910Y003773D01*
X011010Y003773D01*
X011010Y003673D01*
X010760Y003573D02*
X010410Y003573D01*
X010410Y003873D01*
X010760Y003873D01*
X010760Y003573D01*
X009826Y003448D02*
X009826Y003369D01*
X009826Y003999D02*
X009826Y004078D01*
X010446Y004511D02*
X010448Y004529D01*
X010454Y004547D01*
X010463Y004563D01*
X010475Y004576D01*
X010490Y004587D01*
X010507Y004595D01*
X010525Y004599D01*
X010543Y004599D01*
X010561Y004595D01*
X010578Y004587D01*
X010593Y004576D01*
X010605Y004563D01*
X010614Y004547D01*
X010620Y004529D01*
X010622Y004511D01*
X010620Y004493D01*
X010614Y004475D01*
X010605Y004459D01*
X010593Y004446D01*
X010578Y004435D01*
X010561Y004427D01*
X010543Y004423D01*
X010525Y004423D01*
X010507Y004427D01*
X010490Y004435D01*
X010475Y004446D01*
X010463Y004459D01*
X010454Y004475D01*
X010448Y004493D01*
X010446Y004511D01*
X010416Y004708D02*
X011204Y004708D01*
X011794Y004078D02*
X011794Y003999D01*
X011204Y002739D02*
X010416Y002739D01*
X006428Y000952D02*
X006428Y000771D01*
X006306Y000679D01*
X006428Y000589D02*
X006428Y000771D01*
X006422Y000781D02*
X006306Y000857D01*
X013841Y000692D02*
X014550Y000692D01*
X015747Y005729D02*
X015747Y007229D01*
X012688Y006690D02*
X012688Y006190D01*
X012438Y005940D01*
X011938Y005940D01*
X011688Y006190D01*
X011438Y005940D01*
X010938Y005940D01*
X010688Y006190D01*
X010438Y005940D01*
X009938Y005940D01*
X009688Y006190D01*
X009688Y006690D01*
X009938Y006940D01*
X010438Y006940D01*
X010688Y006690D01*
X010938Y006940D01*
X011438Y006940D01*
X011688Y006690D01*
X011938Y006940D01*
X012438Y006940D01*
X012688Y006690D01*
D13*
X004562Y001763D02*
X004538Y001763D01*
X003932Y001755D02*
X003908Y001755D01*
X008475Y001023D02*
X008499Y001023D01*
D14*
X007828Y000646D02*
X007828Y000609D01*
X007791Y000572D01*
X007828Y000536D01*
X007828Y000499D01*
X007791Y000462D01*
X007718Y000462D01*
X007681Y000499D01*
X007607Y000462D02*
X007534Y000536D01*
X007570Y000536D02*
X007460Y000536D01*
X007460Y000462D02*
X007460Y000683D01*
X007570Y000683D01*
X007607Y000646D01*
X007607Y000572D01*
X007570Y000536D01*
X007755Y000572D02*
X007791Y000572D01*
X007828Y000646D02*
X007791Y000683D01*
X007718Y000683D01*
X007681Y000646D01*
X008376Y001492D02*
X008522Y001492D01*
X008559Y001528D01*
X008559Y001602D01*
X008522Y001639D01*
X008522Y001713D02*
X008486Y001713D01*
X008449Y001749D01*
X008449Y001823D01*
X008486Y001860D01*
X008522Y001860D01*
X008559Y001823D01*
X008559Y001749D01*
X008522Y001713D01*
X008449Y001749D02*
X008412Y001713D01*
X008376Y001713D01*
X008339Y001749D01*
X008339Y001823D01*
X008376Y001860D01*
X008412Y001860D01*
X008449Y001823D01*
X008376Y001639D02*
X008339Y001602D01*
X008339Y001528D01*
X008376Y001492D01*
X005444Y001239D02*
X005407Y001276D01*
X005334Y001276D01*
X005297Y001239D01*
X005223Y001239D02*
X005223Y001166D01*
X005186Y001129D01*
X005076Y001129D01*
X005076Y001056D02*
X005076Y001276D01*
X005186Y001276D01*
X005223Y001239D01*
X005150Y001129D02*
X005223Y001056D01*
X005297Y001056D02*
X005444Y001202D01*
X005444Y001239D01*
X005444Y001056D02*
X005297Y001056D01*
X004386Y001481D02*
X004386Y001555D01*
X004349Y001591D01*
X004349Y001665D02*
X004386Y001702D01*
X004386Y001776D01*
X004349Y001812D01*
X004276Y001812D01*
X004239Y001776D01*
X004239Y001739D01*
X004276Y001665D01*
X004166Y001665D01*
X004166Y001812D01*
X004202Y001591D02*
X004166Y001555D01*
X004166Y001481D01*
X004202Y001444D01*
X004349Y001444D01*
X004386Y001481D01*
X003635Y001570D02*
X003635Y001643D01*
X003598Y001680D01*
X003598Y001754D02*
X003635Y001791D01*
X003635Y001864D01*
X003598Y001901D01*
X003562Y001901D01*
X003525Y001864D01*
X003525Y001754D01*
X003598Y001754D01*
X003525Y001754D02*
X003452Y001827D01*
X003415Y001901D01*
X003452Y001680D02*
X003415Y001643D01*
X003415Y001570D01*
X003452Y001533D01*
X003598Y001533D01*
X003635Y001570D01*
X003811Y003444D02*
X003811Y003555D01*
X003848Y003591D01*
X003921Y003591D01*
X003958Y003555D01*
X003958Y003444D01*
X004031Y003444D02*
X003811Y003444D01*
X003958Y003518D02*
X004031Y003591D01*
X003995Y003665D02*
X004031Y003702D01*
X004031Y003776D01*
X003995Y003812D01*
X003921Y003812D01*
X003885Y003776D01*
X003885Y003739D01*
X003921Y003665D01*
X003811Y003665D01*
X003811Y003812D01*
X009269Y005659D02*
X009342Y005585D01*
X009342Y005475D01*
X009342Y005585D02*
X009416Y005659D01*
X009416Y005695D01*
X009490Y005622D02*
X009563Y005695D01*
X009563Y005475D01*
X009490Y005475D02*
X009637Y005475D01*
X009269Y005659D02*
X009269Y005695D01*
X009820Y005053D02*
X009820Y004870D01*
X009857Y004833D01*
X009930Y004833D01*
X009967Y004870D01*
X009967Y005053D01*
X010041Y004980D02*
X010114Y005053D01*
X010114Y004833D01*
X010041Y004833D02*
X010188Y004833D01*
X012456Y004287D02*
X012456Y004213D01*
X012492Y004177D01*
X012529Y004177D01*
X012566Y004213D01*
X012566Y004324D01*
X012639Y004324D02*
X012492Y004324D01*
X012456Y004287D01*
X012639Y004324D02*
X012676Y004287D01*
X012676Y004213D01*
X012639Y004177D01*
X012639Y004103D02*
X012676Y004066D01*
X012676Y003992D01*
X012639Y003956D01*
X012492Y003956D01*
X012456Y003992D01*
X012456Y004066D01*
X012492Y004103D01*
X014841Y004737D02*
X014877Y004700D01*
X014951Y004700D01*
X014987Y004737D01*
X015062Y004737D02*
X015062Y004700D01*
X015062Y004737D02*
X015208Y004883D01*
X015208Y004920D01*
X015062Y004920D01*
X014987Y004883D02*
X014951Y004920D01*
X014877Y004920D01*
X014841Y004883D01*
X014841Y004737D01*
X013279Y005662D02*
X013132Y005662D01*
X013205Y005662D02*
X013205Y005882D01*
X013132Y005809D01*
X013058Y005845D02*
X013058Y005772D01*
X013021Y005735D01*
X012911Y005735D01*
X012911Y005662D02*
X012911Y005882D01*
X013021Y005882D01*
X013058Y005845D01*
X012984Y005735D02*
X013058Y005662D01*
X015921Y005771D02*
X015921Y005844D01*
X015921Y005807D02*
X016141Y005807D01*
X016141Y005771D02*
X016141Y005844D01*
X016141Y005918D02*
X015921Y005918D01*
X015921Y006028D01*
X015958Y006065D01*
X016031Y006065D01*
X016068Y006028D01*
X016068Y005918D01*
X016068Y005991D02*
X016141Y006065D01*
X004206Y006675D02*
X004059Y006675D01*
X004169Y006785D01*
X004169Y006565D01*
X003985Y006565D02*
X003912Y006638D01*
X003948Y006638D02*
X003838Y006638D01*
X003838Y006565D02*
X003838Y006785D01*
X003948Y006785D01*
X003985Y006748D01*
X003985Y006675D01*
X003948Y006638D01*
D15*
X003920Y006282D03*
X013763Y005416D03*
X007660Y000967D03*
X005298Y000771D03*
D16*
X006479Y001772D02*
X008332Y003624D01*
X008332Y003822D01*
X006479Y005675D01*
X004528Y003723D01*
X006479Y001772D01*
X007866Y003723D02*
X007868Y003746D01*
X007874Y003769D01*
X007883Y003790D01*
X007896Y003810D01*
X007912Y003827D01*
X007930Y003841D01*
X007950Y003852D01*
X007972Y003860D01*
X007995Y003864D01*
X008019Y003864D01*
X008042Y003860D01*
X008064Y003852D01*
X008084Y003841D01*
X008102Y003827D01*
X008118Y003810D01*
X008131Y003790D01*
X008140Y003769D01*
X008146Y003746D01*
X008148Y003723D01*
X008146Y003700D01*
X008140Y003677D01*
X008131Y003656D01*
X008118Y003636D01*
X008102Y003619D01*
X008084Y003605D01*
X008064Y003594D01*
X008042Y003586D01*
X008019Y003582D01*
X007995Y003582D01*
X007972Y003586D01*
X007950Y003594D01*
X007930Y003605D01*
X007912Y003619D01*
X007896Y003636D01*
X007883Y003656D01*
X007874Y003677D01*
X007868Y003700D01*
X007866Y003723D01*
X013747Y006479D02*
X013749Y006542D01*
X013755Y006604D01*
X013765Y006666D01*
X013778Y006728D01*
X013796Y006788D01*
X013817Y006847D01*
X013842Y006905D01*
X013871Y006961D01*
X013903Y007015D01*
X013938Y007067D01*
X013976Y007116D01*
X014018Y007164D01*
X014062Y007208D01*
X014110Y007250D01*
X014159Y007288D01*
X014211Y007323D01*
X014265Y007355D01*
X014321Y007384D01*
X014379Y007409D01*
X014438Y007430D01*
X014498Y007448D01*
X014560Y007461D01*
X014622Y007471D01*
X014684Y007477D01*
X014747Y007479D01*
X014810Y007477D01*
X014872Y007471D01*
X014934Y007461D01*
X014996Y007448D01*
X015056Y007430D01*
X015115Y007409D01*
X015173Y007384D01*
X015229Y007355D01*
X015283Y007323D01*
X015335Y007288D01*
X015384Y007250D01*
X015432Y007208D01*
X015476Y007164D01*
X015518Y007116D01*
X015556Y007067D01*
X015591Y007015D01*
X015623Y006961D01*
X015652Y006905D01*
X015677Y006847D01*
X015698Y006788D01*
X015716Y006728D01*
X015729Y006666D01*
X015739Y006604D01*
X015745Y006542D01*
X015747Y006479D01*
X015745Y006416D01*
X015739Y006354D01*
X015729Y006292D01*
X015716Y006230D01*
X015698Y006170D01*
X015677Y006111D01*
X015652Y006053D01*
X015623Y005997D01*
X015591Y005943D01*
X015556Y005891D01*
X015518Y005842D01*
X015476Y005794D01*
X015432Y005750D01*
X015384Y005708D01*
X015335Y005670D01*
X015283Y005635D01*
X015229Y005603D01*
X015173Y005574D01*
X015115Y005549D01*
X015056Y005528D01*
X014996Y005510D01*
X014934Y005497D01*
X014872Y005487D01*
X014810Y005481D01*
X014747Y005479D01*
X014684Y005481D01*
X014622Y005487D01*
X014560Y005497D01*
X014498Y005510D01*
X014438Y005528D01*
X014379Y005549D01*
X014321Y005574D01*
X014265Y005603D01*
X014211Y005635D01*
X014159Y005670D01*
X014110Y005708D01*
X014062Y005750D01*
X014018Y005794D01*
X013976Y005842D01*
X013938Y005891D01*
X013903Y005943D01*
X013871Y005997D01*
X013842Y006053D01*
X013817Y006111D01*
X013796Y006170D01*
X013778Y006230D01*
X013765Y006292D01*
X013755Y006354D01*
X013749Y006416D01*
X013747Y006479D01*
D17*
X009019Y006952D02*
X008271Y006952D01*
X008271Y005219D02*
X009019Y005219D01*
D18*
X014034Y004086D02*
X014034Y004049D01*
X014034Y004086D02*
X014672Y004086D01*
X014672Y004049D01*
X014672Y003732D02*
X014672Y003695D01*
X014034Y003732D02*
X014034Y003321D01*
X014672Y003321D02*
X014672Y003358D01*
X014672Y003004D02*
X014672Y002966D01*
X014034Y002966D01*
X014034Y003004D01*
X012510Y001836D02*
X012110Y001836D01*
X012510Y001836D02*
X012510Y001286D01*
X011810Y000436D02*
X009810Y000436D01*
X009110Y001286D02*
X009110Y001836D01*
X009510Y001836D01*
D19*
X013431Y003435D02*
X013495Y003435D01*
X013463Y003435D02*
X013463Y003625D01*
X013431Y003625D02*
X013495Y003625D01*
X013579Y003594D02*
X013610Y003625D01*
X013674Y003625D01*
X013705Y003594D01*
X013800Y003625D02*
X013926Y003625D01*
X013926Y003594D01*
X013800Y003467D01*
X013800Y003435D01*
X013705Y003467D02*
X013674Y003435D01*
X013610Y003435D01*
X013579Y003467D01*
X013579Y003594D01*
D20*
X015779Y007259D02*
X015707Y007205D01*
X015708Y007206D02*
X015665Y007259D01*
X015620Y007310D01*
X015571Y007358D01*
X015520Y007403D01*
X015466Y007446D01*
X015410Y007485D01*
X015352Y007521D01*
X015292Y007554D01*
X015231Y007583D01*
X015167Y007608D01*
X015103Y007630D01*
X015037Y007649D01*
X014970Y007663D01*
X014903Y007674D01*
X014835Y007681D01*
X014767Y007684D01*
X014698Y007683D01*
X014630Y007678D01*
X014562Y007670D01*
X014495Y007657D01*
X014429Y007641D01*
X014364Y007621D01*
X014299Y007598D01*
X014237Y007571D01*
X014176Y007540D01*
X014117Y007506D01*
X014059Y007469D01*
X014004Y007428D01*
X013952Y007384D01*
X013902Y007338D01*
X013855Y007289D01*
X013810Y007237D01*
X013769Y007183D01*
X013730Y007126D01*
X013695Y007067D01*
X013664Y007007D01*
X013636Y006945D01*
X013611Y006881D01*
X013590Y006816D01*
X013573Y006750D01*
X013559Y006683D01*
X013550Y006615D01*
X013544Y006547D01*
X013542Y006479D01*
X013544Y006411D01*
X013550Y006343D01*
X013559Y006275D01*
X013573Y006208D01*
X013590Y006142D01*
X013611Y006077D01*
X013636Y006013D01*
X013664Y005951D01*
X013695Y005891D01*
X013730Y005832D01*
X013769Y005775D01*
X013810Y005721D01*
X013855Y005669D01*
X013902Y005620D01*
X013952Y005574D01*
X014004Y005530D01*
X014059Y005489D01*
X014117Y005452D01*
X014176Y005418D01*
X014237Y005387D01*
X014299Y005360D01*
X014364Y005337D01*
X014429Y005317D01*
X014495Y005301D01*
X014562Y005288D01*
X014630Y005280D01*
X014698Y005275D01*
X014767Y005274D01*
X014835Y005277D01*
X014903Y005284D01*
X014970Y005295D01*
X015037Y005309D01*
X015103Y005328D01*
X015167Y005350D01*
X015231Y005375D01*
X015292Y005404D01*
X015352Y005437D01*
X015410Y005473D01*
X015466Y005512D01*
X015520Y005555D01*
X015571Y005600D01*
X015620Y005648D01*
X015665Y005699D01*
X015708Y005752D01*
X015779Y005699D01*
X015780Y005698D01*
X015736Y005643D01*
X015688Y005590D01*
X015638Y005539D01*
X015585Y005492D01*
X015530Y005448D01*
X015472Y005406D01*
X015412Y005368D01*
X015351Y005333D01*
X015287Y005302D01*
X015222Y005274D01*
X015155Y005250D01*
X015087Y005229D01*
X015018Y005213D01*
X014948Y005200D01*
X014878Y005191D01*
X014807Y005185D01*
X014736Y005184D01*
X014665Y005187D01*
X014594Y005193D01*
X014524Y005203D01*
X014455Y005217D01*
X014386Y005235D01*
X014318Y005257D01*
X014252Y005282D01*
X014187Y005311D01*
X014124Y005344D01*
X014063Y005380D01*
X014004Y005419D01*
X013947Y005461D01*
X013892Y005506D01*
X013840Y005555D01*
X013791Y005606D01*
X013744Y005659D01*
X013701Y005716D01*
X013661Y005774D01*
X013624Y005835D01*
X013590Y005897D01*
X013560Y005961D01*
X013533Y006027D01*
X013510Y006094D01*
X013491Y006163D01*
X013476Y006232D01*
X013464Y006302D01*
X013456Y006373D01*
X013452Y006444D01*
X013452Y006514D01*
X013456Y006585D01*
X013464Y006656D01*
X013476Y006726D01*
X013491Y006795D01*
X013510Y006864D01*
X013533Y006931D01*
X013560Y006997D01*
X013590Y007061D01*
X013624Y007123D01*
X013661Y007184D01*
X013701Y007242D01*
X013744Y007299D01*
X013791Y007352D01*
X013840Y007403D01*
X013892Y007452D01*
X013947Y007497D01*
X014004Y007539D01*
X014063Y007578D01*
X014124Y007614D01*
X014187Y007647D01*
X014252Y007676D01*
X014318Y007701D01*
X014386Y007723D01*
X014455Y007741D01*
X014524Y007755D01*
X014594Y007765D01*
X014665Y007771D01*
X014736Y007774D01*
X014807Y007773D01*
X014878Y007767D01*
X014948Y007758D01*
X015018Y007745D01*
X015087Y007729D01*
X015155Y007708D01*
X015222Y007684D01*
X015287Y007656D01*
X015351Y007625D01*
X015412Y007590D01*
X015472Y007552D01*
X015530Y007510D01*
X015585Y007466D01*
X015638Y007419D01*
X015688Y007368D01*
X015736Y007315D01*
X015780Y007260D01*
X015773Y007255D01*
X015728Y007310D01*
X015681Y007363D01*
X015630Y007414D01*
X015577Y007461D01*
X015521Y007506D01*
X015463Y007547D01*
X015403Y007585D01*
X015341Y007620D01*
X015277Y007651D01*
X015211Y007678D01*
X015144Y007702D01*
X015075Y007722D01*
X015006Y007739D01*
X014936Y007751D01*
X014865Y007760D01*
X014794Y007764D01*
X014723Y007765D01*
X014652Y007761D01*
X014581Y007754D01*
X014510Y007743D01*
X014441Y007728D01*
X014372Y007709D01*
X014304Y007686D01*
X014238Y007660D01*
X014173Y007630D01*
X014111Y007596D01*
X014050Y007560D01*
X013991Y007519D01*
X013934Y007476D01*
X013880Y007429D01*
X013829Y007380D01*
X013781Y007327D01*
X013735Y007273D01*
X013693Y007215D01*
X013654Y007156D01*
X013618Y007094D01*
X013585Y007031D01*
X013557Y006966D01*
X013531Y006899D01*
X013510Y006831D01*
X013492Y006762D01*
X013479Y006692D01*
X013469Y006621D01*
X013463Y006550D01*
X013461Y006479D01*
X013463Y006408D01*
X013469Y006337D01*
X013479Y006266D01*
X013492Y006196D01*
X013510Y006127D01*
X013531Y006059D01*
X013557Y005992D01*
X013585Y005927D01*
X013618Y005864D01*
X013654Y005802D01*
X013693Y005743D01*
X013735Y005685D01*
X013781Y005631D01*
X013829Y005578D01*
X013880Y005529D01*
X013934Y005482D01*
X013991Y005439D01*
X014050Y005398D01*
X014111Y005362D01*
X014173Y005328D01*
X014238Y005298D01*
X014304Y005272D01*
X014372Y005249D01*
X014441Y005230D01*
X014510Y005215D01*
X014581Y005204D01*
X014652Y005197D01*
X014723Y005193D01*
X014794Y005194D01*
X014865Y005198D01*
X014936Y005207D01*
X015006Y005219D01*
X015075Y005236D01*
X015144Y005256D01*
X015211Y005280D01*
X015277Y005307D01*
X015341Y005338D01*
X015403Y005373D01*
X015463Y005411D01*
X015521Y005452D01*
X015577Y005497D01*
X015630Y005544D01*
X015681Y005595D01*
X015728Y005648D01*
X015773Y005703D01*
X015766Y005709D01*
X015721Y005654D01*
X015674Y005601D01*
X015624Y005551D01*
X015571Y005504D01*
X015516Y005460D01*
X015458Y005418D01*
X015399Y005381D01*
X015337Y005346D01*
X015273Y005315D01*
X015208Y005288D01*
X015141Y005264D01*
X015073Y005244D01*
X015004Y005228D01*
X014935Y005216D01*
X014864Y005207D01*
X014794Y005203D01*
X014723Y005202D01*
X014652Y005206D01*
X014582Y005213D01*
X014512Y005224D01*
X014443Y005239D01*
X014375Y005258D01*
X014307Y005280D01*
X014242Y005306D01*
X014177Y005336D01*
X014115Y005369D01*
X014055Y005406D01*
X013996Y005446D01*
X013940Y005489D01*
X013886Y005535D01*
X013836Y005585D01*
X013787Y005636D01*
X013742Y005691D01*
X013700Y005748D01*
X013661Y005807D01*
X013626Y005868D01*
X013593Y005931D01*
X013565Y005996D01*
X013540Y006062D01*
X013519Y006130D01*
X013501Y006198D01*
X013488Y006268D01*
X013478Y006338D01*
X013472Y006408D01*
X013470Y006479D01*
X013472Y006550D01*
X013478Y006620D01*
X013488Y006690D01*
X013501Y006760D01*
X013519Y006828D01*
X013540Y006896D01*
X013565Y006962D01*
X013593Y007027D01*
X013626Y007090D01*
X013661Y007151D01*
X013700Y007210D01*
X013742Y007267D01*
X013787Y007322D01*
X013836Y007373D01*
X013886Y007423D01*
X013940Y007469D01*
X013996Y007512D01*
X014055Y007552D01*
X014115Y007589D01*
X014177Y007622D01*
X014242Y007652D01*
X014307Y007678D01*
X014375Y007700D01*
X014443Y007719D01*
X014512Y007734D01*
X014582Y007745D01*
X014652Y007752D01*
X014723Y007756D01*
X014794Y007755D01*
X014864Y007751D01*
X014935Y007742D01*
X015004Y007730D01*
X015073Y007714D01*
X015141Y007694D01*
X015208Y007670D01*
X015273Y007643D01*
X015337Y007612D01*
X015399Y007577D01*
X015458Y007540D01*
X015516Y007498D01*
X015571Y007454D01*
X015624Y007407D01*
X015674Y007357D01*
X015721Y007304D01*
X015766Y007249D01*
X015758Y007244D01*
X015714Y007299D01*
X015666Y007352D01*
X015616Y007402D01*
X015563Y007450D01*
X015507Y007494D01*
X015449Y007535D01*
X015389Y007572D01*
X015327Y007607D01*
X015263Y007637D01*
X015197Y007664D01*
X015130Y007688D01*
X015062Y007707D01*
X014992Y007723D01*
X014922Y007735D01*
X014852Y007743D01*
X014781Y007747D01*
X014710Y007746D01*
X014639Y007742D01*
X014568Y007734D01*
X014498Y007722D01*
X014429Y007706D01*
X014361Y007687D01*
X014293Y007663D01*
X014228Y007636D01*
X014164Y007605D01*
X014102Y007571D01*
X014042Y007533D01*
X013984Y007491D01*
X013928Y007447D01*
X013875Y007400D01*
X013825Y007349D01*
X013778Y007296D01*
X013733Y007241D01*
X013692Y007183D01*
X013655Y007123D01*
X013620Y007060D01*
X013589Y006996D01*
X013562Y006931D01*
X013539Y006864D01*
X013519Y006795D01*
X013503Y006726D01*
X013491Y006656D01*
X013483Y006585D01*
X013479Y006515D01*
X013479Y006443D01*
X013483Y006373D01*
X013491Y006302D01*
X013503Y006232D01*
X013519Y006163D01*
X013539Y006094D01*
X013562Y006027D01*
X013589Y005962D01*
X013620Y005898D01*
X013655Y005835D01*
X013692Y005775D01*
X013733Y005717D01*
X013778Y005662D01*
X013825Y005609D01*
X013875Y005558D01*
X013928Y005511D01*
X013984Y005467D01*
X014042Y005425D01*
X014102Y005387D01*
X014164Y005353D01*
X014228Y005322D01*
X014293Y005295D01*
X014361Y005271D01*
X014429Y005252D01*
X014498Y005236D01*
X014568Y005224D01*
X014639Y005216D01*
X014710Y005212D01*
X014781Y005211D01*
X014852Y005215D01*
X014922Y005223D01*
X014992Y005235D01*
X015062Y005251D01*
X015130Y005270D01*
X015197Y005294D01*
X015263Y005321D01*
X015327Y005351D01*
X015389Y005386D01*
X015449Y005423D01*
X015507Y005464D01*
X015563Y005508D01*
X015616Y005556D01*
X015666Y005606D01*
X015714Y005659D01*
X015758Y005714D01*
X015751Y005720D01*
X015707Y005665D01*
X015660Y005612D01*
X015610Y005562D01*
X015557Y005515D01*
X015502Y005471D01*
X015444Y005431D01*
X015385Y005393D01*
X015323Y005359D01*
X015259Y005329D01*
X015194Y005302D01*
X015127Y005279D01*
X015059Y005259D01*
X014991Y005244D01*
X014921Y005232D01*
X014851Y005224D01*
X014780Y005220D01*
X014710Y005221D01*
X014639Y005225D01*
X014569Y005233D01*
X014500Y005245D01*
X014431Y005260D01*
X014363Y005280D01*
X014297Y005303D01*
X014232Y005330D01*
X014168Y005361D01*
X014106Y005395D01*
X014047Y005433D01*
X013989Y005474D01*
X013934Y005518D01*
X013881Y005565D01*
X013832Y005615D01*
X013785Y005667D01*
X013741Y005723D01*
X013700Y005780D01*
X013662Y005840D01*
X013628Y005902D01*
X013598Y005965D01*
X013571Y006030D01*
X013547Y006097D01*
X013528Y006165D01*
X013512Y006234D01*
X013500Y006303D01*
X013492Y006373D01*
X013488Y006444D01*
X013488Y006514D01*
X013492Y006585D01*
X013500Y006655D01*
X013512Y006724D01*
X013528Y006793D01*
X013547Y006861D01*
X013571Y006928D01*
X013598Y006993D01*
X013628Y007056D01*
X013662Y007118D01*
X013700Y007178D01*
X013741Y007235D01*
X013785Y007291D01*
X013832Y007343D01*
X013881Y007393D01*
X013934Y007440D01*
X013989Y007484D01*
X014047Y007525D01*
X014106Y007563D01*
X014168Y007597D01*
X014232Y007628D01*
X014297Y007655D01*
X014363Y007678D01*
X014431Y007698D01*
X014500Y007713D01*
X014569Y007725D01*
X014639Y007733D01*
X014710Y007737D01*
X014780Y007738D01*
X014851Y007734D01*
X014921Y007726D01*
X014991Y007714D01*
X015059Y007699D01*
X015127Y007679D01*
X015194Y007656D01*
X015259Y007629D01*
X015323Y007599D01*
X015385Y007565D01*
X015444Y007527D01*
X015502Y007487D01*
X015557Y007443D01*
X015610Y007396D01*
X015660Y007346D01*
X015707Y007293D01*
X015751Y007238D01*
X015744Y007233D01*
X015700Y007288D01*
X015653Y007340D01*
X015604Y007389D01*
X015551Y007436D01*
X015497Y007479D01*
X015439Y007520D01*
X015380Y007557D01*
X015319Y007591D01*
X015255Y007621D01*
X015191Y007648D01*
X015124Y007671D01*
X015057Y007690D01*
X014989Y007705D01*
X014920Y007717D01*
X014850Y007725D01*
X014780Y007729D01*
X014710Y007728D01*
X014640Y007724D01*
X014571Y007716D01*
X014502Y007705D01*
X014433Y007689D01*
X014366Y007670D01*
X014300Y007646D01*
X014235Y007619D01*
X014172Y007589D01*
X014111Y007555D01*
X014052Y007518D01*
X013994Y007477D01*
X013940Y007433D01*
X013888Y007387D01*
X013838Y007337D01*
X013791Y007285D01*
X013748Y007230D01*
X013707Y007173D01*
X013670Y007114D01*
X013636Y007052D01*
X013606Y006989D01*
X013579Y006924D01*
X013556Y006858D01*
X013537Y006791D01*
X013521Y006723D01*
X013509Y006654D01*
X013501Y006584D01*
X013497Y006514D01*
X013497Y006444D01*
X013501Y006374D01*
X013509Y006304D01*
X013521Y006235D01*
X013537Y006167D01*
X013556Y006100D01*
X013579Y006034D01*
X013606Y005969D01*
X013636Y005906D01*
X013670Y005844D01*
X013707Y005785D01*
X013748Y005728D01*
X013791Y005673D01*
X013838Y005621D01*
X013888Y005571D01*
X013940Y005525D01*
X013994Y005481D01*
X014052Y005440D01*
X014111Y005403D01*
X014172Y005369D01*
X014235Y005339D01*
X014300Y005312D01*
X014366Y005288D01*
X014433Y005269D01*
X014502Y005253D01*
X014571Y005242D01*
X014640Y005234D01*
X014710Y005230D01*
X014780Y005229D01*
X014850Y005233D01*
X014920Y005241D01*
X014989Y005253D01*
X015057Y005268D01*
X015124Y005287D01*
X015191Y005310D01*
X015255Y005337D01*
X015319Y005367D01*
X015380Y005401D01*
X015439Y005438D01*
X015497Y005479D01*
X015551Y005522D01*
X015604Y005569D01*
X015653Y005618D01*
X015700Y005670D01*
X015744Y005725D01*
X015737Y005730D01*
X015693Y005676D01*
X015647Y005624D01*
X015598Y005575D01*
X015546Y005529D01*
X015491Y005486D01*
X015434Y005446D01*
X015375Y005409D01*
X015314Y005375D01*
X015252Y005345D01*
X015187Y005319D01*
X015122Y005296D01*
X015055Y005277D01*
X014987Y005261D01*
X014918Y005250D01*
X014849Y005242D01*
X014780Y005238D01*
X014710Y005239D01*
X014641Y005243D01*
X014572Y005250D01*
X014503Y005262D01*
X014436Y005278D01*
X014369Y005297D01*
X014303Y005320D01*
X014239Y005347D01*
X014176Y005377D01*
X014115Y005411D01*
X014057Y005448D01*
X014000Y005488D01*
X013946Y005531D01*
X013894Y005578D01*
X013845Y005627D01*
X013798Y005679D01*
X013755Y005733D01*
X013715Y005790D01*
X013678Y005849D01*
X013644Y005910D01*
X013614Y005973D01*
X013587Y006037D01*
X013564Y006102D01*
X013545Y006169D01*
X013530Y006237D01*
X013518Y006306D01*
X013510Y006375D01*
X013506Y006444D01*
X013506Y006514D01*
X013510Y006583D01*
X013518Y006652D01*
X013530Y006721D01*
X013545Y006789D01*
X013564Y006856D01*
X013587Y006921D01*
X013614Y006985D01*
X013644Y007048D01*
X013678Y007109D01*
X013715Y007168D01*
X013755Y007225D01*
X013798Y007279D01*
X013845Y007331D01*
X013894Y007380D01*
X013946Y007427D01*
X014000Y007470D01*
X014057Y007510D01*
X014115Y007547D01*
X014176Y007581D01*
X014239Y007611D01*
X014303Y007638D01*
X014369Y007661D01*
X014436Y007680D01*
X014503Y007696D01*
X014572Y007708D01*
X014641Y007715D01*
X014710Y007719D01*
X014780Y007720D01*
X014849Y007716D01*
X014918Y007708D01*
X014987Y007697D01*
X015055Y007681D01*
X015122Y007662D01*
X015187Y007639D01*
X015252Y007613D01*
X015314Y007583D01*
X015375Y007549D01*
X015434Y007512D01*
X015491Y007472D01*
X015546Y007429D01*
X015598Y007383D01*
X015647Y007334D01*
X015693Y007282D01*
X015737Y007228D01*
X015730Y007222D01*
X015686Y007276D01*
X015640Y007327D01*
X015591Y007376D01*
X015540Y007422D01*
X015486Y007465D01*
X015429Y007505D01*
X015371Y007541D01*
X015310Y007575D01*
X015248Y007605D01*
X015184Y007631D01*
X015119Y007653D01*
X015053Y007672D01*
X014985Y007688D01*
X014917Y007699D01*
X014849Y007707D01*
X014780Y007711D01*
X014711Y007710D01*
X014642Y007706D01*
X014573Y007699D01*
X014505Y007687D01*
X014438Y007672D01*
X014371Y007652D01*
X014306Y007629D01*
X014243Y007603D01*
X014180Y007573D01*
X014120Y007540D01*
X014062Y007503D01*
X014005Y007463D01*
X013951Y007420D01*
X013900Y007374D01*
X013851Y007325D01*
X013805Y007273D01*
X013762Y007219D01*
X013722Y007163D01*
X013686Y007104D01*
X013652Y007044D01*
X013622Y006982D01*
X013596Y006918D01*
X013573Y006853D01*
X013554Y006786D01*
X013539Y006719D01*
X013527Y006651D01*
X013519Y006582D01*
X013515Y006514D01*
X013515Y006444D01*
X013519Y006376D01*
X013527Y006307D01*
X013539Y006239D01*
X013554Y006172D01*
X013573Y006105D01*
X013596Y006040D01*
X013622Y005976D01*
X013652Y005914D01*
X013686Y005854D01*
X013722Y005795D01*
X013762Y005739D01*
X013805Y005685D01*
X013851Y005633D01*
X013900Y005584D01*
X013951Y005538D01*
X014005Y005495D01*
X014062Y005455D01*
X014120Y005418D01*
X014180Y005385D01*
X014243Y005355D01*
X014306Y005329D01*
X014371Y005306D01*
X014438Y005286D01*
X014505Y005271D01*
X014573Y005259D01*
X014642Y005252D01*
X014711Y005248D01*
X014780Y005247D01*
X014849Y005251D01*
X014917Y005259D01*
X014985Y005270D01*
X015053Y005286D01*
X015119Y005305D01*
X015184Y005327D01*
X015248Y005353D01*
X015310Y005383D01*
X015371Y005417D01*
X015429Y005453D01*
X015486Y005493D01*
X015540Y005536D01*
X015591Y005582D01*
X015640Y005631D01*
X015686Y005682D01*
X015730Y005736D01*
X015722Y005741D01*
X015679Y005687D01*
X015633Y005636D01*
X015583Y005587D01*
X015532Y005541D01*
X015477Y005498D01*
X015420Y005458D01*
X015362Y005422D01*
X015301Y005388D01*
X015238Y005359D01*
X015174Y005333D01*
X015108Y005311D01*
X015041Y005292D01*
X014974Y005277D01*
X014905Y005266D01*
X014836Y005259D01*
X014767Y005256D01*
X014698Y005257D01*
X014628Y005262D01*
X014560Y005270D01*
X014492Y005283D01*
X014424Y005299D01*
X014358Y005320D01*
X014293Y005343D01*
X014229Y005371D01*
X014167Y005402D01*
X014107Y005437D01*
X014049Y005475D01*
X013993Y005516D01*
X013940Y005560D01*
X013889Y005607D01*
X013841Y005657D01*
X013796Y005710D01*
X013754Y005765D01*
X013715Y005822D01*
X013680Y005882D01*
X013648Y005943D01*
X013619Y006006D01*
X013594Y006071D01*
X013573Y006137D01*
X013555Y006204D01*
X013542Y006272D01*
X013532Y006341D01*
X013526Y006410D01*
X013524Y006479D01*
X013526Y006548D01*
X013532Y006617D01*
X013542Y006686D01*
X013555Y006754D01*
X013573Y006821D01*
X013594Y006887D01*
X013619Y006952D01*
X013648Y007015D01*
X013680Y007076D01*
X013715Y007136D01*
X013754Y007193D01*
X013796Y007248D01*
X013841Y007301D01*
X013889Y007351D01*
X013940Y007398D01*
X013993Y007442D01*
X014049Y007483D01*
X014107Y007521D01*
X014167Y007556D01*
X014229Y007587D01*
X014293Y007615D01*
X014358Y007638D01*
X014424Y007659D01*
X014492Y007675D01*
X014560Y007688D01*
X014628Y007696D01*
X014698Y007701D01*
X014767Y007702D01*
X014836Y007699D01*
X014905Y007692D01*
X014974Y007681D01*
X015041Y007666D01*
X015108Y007647D01*
X015174Y007625D01*
X015238Y007599D01*
X015301Y007570D01*
X015362Y007536D01*
X015420Y007500D01*
X015477Y007460D01*
X015532Y007417D01*
X015583Y007371D01*
X015633Y007322D01*
X015679Y007271D01*
X015722Y007217D01*
X015715Y007211D01*
X015672Y007265D01*
X015626Y007316D01*
X015577Y007365D01*
X015526Y007410D01*
X015472Y007453D01*
X015415Y007492D01*
X015357Y007529D01*
X015297Y007562D01*
X015234Y007591D01*
X015171Y007617D01*
X015105Y007639D01*
X015039Y007657D01*
X014972Y007672D01*
X014904Y007683D01*
X014835Y007690D01*
X014767Y007693D01*
X014698Y007692D01*
X014629Y007687D01*
X014561Y007679D01*
X014493Y007666D01*
X014427Y007650D01*
X014361Y007630D01*
X014296Y007606D01*
X014233Y007579D01*
X014172Y007548D01*
X014112Y007514D01*
X014054Y007476D01*
X013999Y007435D01*
X013946Y007391D01*
X013896Y007344D01*
X013848Y007295D01*
X013803Y007243D01*
X013761Y007188D01*
X013723Y007131D01*
X013688Y007072D01*
X013656Y007011D01*
X013627Y006948D01*
X013603Y006884D01*
X013581Y006818D01*
X013564Y006752D01*
X013551Y006684D01*
X013541Y006616D01*
X013535Y006548D01*
X013533Y006479D01*
X013535Y006410D01*
X013541Y006342D01*
X013551Y006274D01*
X013564Y006206D01*
X013581Y006140D01*
X013603Y006074D01*
X013627Y006010D01*
X013656Y005947D01*
X013688Y005886D01*
X013723Y005827D01*
X013761Y005770D01*
X013803Y005715D01*
X013848Y005663D01*
X013896Y005614D01*
X013946Y005567D01*
X013999Y005523D01*
X014054Y005482D01*
X014112Y005444D01*
X014172Y005410D01*
X014233Y005379D01*
X014296Y005352D01*
X014361Y005328D01*
X014427Y005308D01*
X014493Y005292D01*
X014561Y005279D01*
X014629Y005271D01*
X014698Y005266D01*
X014767Y005265D01*
X014835Y005268D01*
X014904Y005275D01*
X014972Y005286D01*
X015039Y005301D01*
X015105Y005319D01*
X015171Y005341D01*
X015234Y005367D01*
X015297Y005396D01*
X015357Y005429D01*
X015415Y005466D01*
X015472Y005505D01*
X015526Y005548D01*
X015577Y005593D01*
X015626Y005642D01*
X015672Y005693D01*
X015715Y005747D01*
D21*
X003526Y003526D03*
M02*
