G75*
%MOIN*%
%OFA0B0*%
%FSLAX24Y24*%
%IPPOS*%
%LPD*%
%AMOC8*
5,1,8,0,0,1.08239X$1,22.5*
%
%ADD10C,0.0000*%
D10*
X000180Y000180D02*
X000180Y007267D01*
X017109Y007267D01*
X017109Y000180D01*
X000180Y000180D01*
X015495Y004708D02*
X015497Y004749D01*
X015503Y004790D01*
X015513Y004830D01*
X015526Y004869D01*
X015543Y004906D01*
X015564Y004942D01*
X015588Y004976D01*
X015615Y005007D01*
X015644Y005035D01*
X015677Y005061D01*
X015711Y005083D01*
X015748Y005102D01*
X015786Y005117D01*
X015826Y005129D01*
X015866Y005137D01*
X015907Y005141D01*
X015949Y005141D01*
X015990Y005137D01*
X016030Y005129D01*
X016070Y005117D01*
X016108Y005102D01*
X016144Y005083D01*
X016179Y005061D01*
X016212Y005035D01*
X016241Y005007D01*
X016268Y004976D01*
X016292Y004942D01*
X016313Y004906D01*
X016330Y004869D01*
X016343Y004830D01*
X016353Y004790D01*
X016359Y004749D01*
X016361Y004708D01*
X016359Y004667D01*
X016353Y004626D01*
X016343Y004586D01*
X016330Y004547D01*
X016313Y004510D01*
X016292Y004474D01*
X016268Y004440D01*
X016241Y004409D01*
X016212Y004381D01*
X016179Y004355D01*
X016145Y004333D01*
X016108Y004314D01*
X016070Y004299D01*
X016030Y004287D01*
X015990Y004279D01*
X015949Y004275D01*
X015907Y004275D01*
X015866Y004279D01*
X015826Y004287D01*
X015786Y004299D01*
X015748Y004314D01*
X015712Y004333D01*
X015677Y004355D01*
X015644Y004381D01*
X015615Y004409D01*
X015588Y004440D01*
X015564Y004474D01*
X015543Y004510D01*
X015526Y004547D01*
X015513Y004586D01*
X015503Y004626D01*
X015497Y004667D01*
X015495Y004708D01*
M02*
