G75*
%MOIN*%
%OFA0B0*%
%FSLAX24Y24*%
%IPPOS*%
%LPD*%
%AMOC8*
5,1,8,0,0,1.08239X$1,22.5*
%
%ADD10R,0.0354X0.0276*%
%ADD11R,0.0276X0.0354*%
%ADD12R,0.0315X0.0315*%
%ADD13R,0.0500X0.0220*%
%ADD14R,0.0220X0.0500*%
%ADD15R,0.0472X0.0217*%
%ADD16R,0.0236X0.0610*%
%ADD17R,0.0472X0.0709*%
%ADD18C,0.0433*%
D10*
X003920Y001499D03*
X004550Y001507D03*
X004550Y002019D03*
X003920Y002011D03*
X003526Y003271D03*
X003526Y003782D03*
X008487Y001278D03*
X008487Y000767D03*
X012936Y003940D03*
X012936Y004452D03*
D11*
X014097Y004708D03*
X014609Y004708D03*
X014019Y005416D03*
X013507Y005416D03*
X004176Y006282D03*
X003664Y006282D03*
X007404Y000967D03*
X007916Y000967D03*
X005554Y000771D03*
X005042Y000771D03*
D12*
X006066Y000771D03*
X006656Y000771D03*
D13*
G36*
X005810Y001651D02*
X006162Y002003D01*
X006318Y001847D01*
X005966Y001495D01*
X005810Y001651D01*
G37*
G36*
X005587Y001874D02*
X005939Y002226D01*
X006095Y002070D01*
X005743Y001718D01*
X005587Y001874D01*
G37*
G36*
X005364Y002096D02*
X005716Y002448D01*
X005872Y002292D01*
X005520Y001940D01*
X005364Y002096D01*
G37*
G36*
X005142Y002319D02*
X005494Y002671D01*
X005650Y002515D01*
X005298Y002163D01*
X005142Y002319D01*
G37*
G36*
X004919Y002542D02*
X005271Y002894D01*
X005427Y002738D01*
X005075Y002386D01*
X004919Y002542D01*
G37*
G36*
X004696Y002764D02*
X005048Y003116D01*
X005204Y002960D01*
X004852Y002608D01*
X004696Y002764D01*
G37*
G36*
X004473Y002987D02*
X004825Y003339D01*
X004981Y003183D01*
X004629Y002831D01*
X004473Y002987D01*
G37*
G36*
X004251Y003210D02*
X004603Y003562D01*
X004759Y003406D01*
X004407Y003054D01*
X004251Y003210D01*
G37*
G36*
X007532Y004709D02*
X007884Y005061D01*
X008040Y004905D01*
X007688Y004553D01*
X007532Y004709D01*
G37*
G36*
X007754Y004486D02*
X008106Y004838D01*
X008262Y004682D01*
X007910Y004330D01*
X007754Y004486D01*
G37*
G36*
X007977Y004264D02*
X008329Y004616D01*
X008485Y004460D01*
X008133Y004108D01*
X007977Y004264D01*
G37*
G36*
X008200Y004041D02*
X008552Y004393D01*
X008708Y004237D01*
X008356Y003885D01*
X008200Y004041D01*
G37*
G36*
X007309Y004932D02*
X007661Y005284D01*
X007817Y005128D01*
X007465Y004776D01*
X007309Y004932D01*
G37*
G36*
X007086Y005154D02*
X007438Y005506D01*
X007594Y005350D01*
X007242Y004998D01*
X007086Y005154D01*
G37*
G36*
X006863Y005377D02*
X007215Y005729D01*
X007371Y005573D01*
X007019Y005221D01*
X006863Y005377D01*
G37*
G36*
X006641Y005600D02*
X006993Y005952D01*
X007149Y005796D01*
X006797Y005444D01*
X006641Y005600D01*
G37*
D14*
G36*
X005810Y005796D02*
X005966Y005952D01*
X006318Y005600D01*
X006162Y005444D01*
X005810Y005796D01*
G37*
G36*
X005587Y005573D02*
X005743Y005729D01*
X006095Y005377D01*
X005939Y005221D01*
X005587Y005573D01*
G37*
G36*
X005364Y005350D02*
X005520Y005506D01*
X005872Y005154D01*
X005716Y004998D01*
X005364Y005350D01*
G37*
G36*
X005142Y005128D02*
X005298Y005284D01*
X005650Y004932D01*
X005494Y004776D01*
X005142Y005128D01*
G37*
G36*
X004919Y004905D02*
X005075Y005061D01*
X005427Y004709D01*
X005271Y004553D01*
X004919Y004905D01*
G37*
G36*
X004696Y004682D02*
X004852Y004838D01*
X005204Y004486D01*
X005048Y004330D01*
X004696Y004682D01*
G37*
G36*
X004473Y004460D02*
X004629Y004616D01*
X004981Y004264D01*
X004825Y004108D01*
X004473Y004460D01*
G37*
G36*
X004251Y004237D02*
X004407Y004393D01*
X004759Y004041D01*
X004603Y003885D01*
X004251Y004237D01*
G37*
G36*
X007532Y002738D02*
X007688Y002894D01*
X008040Y002542D01*
X007884Y002386D01*
X007532Y002738D01*
G37*
G36*
X007754Y002960D02*
X007910Y003116D01*
X008262Y002764D01*
X008106Y002608D01*
X007754Y002960D01*
G37*
G36*
X007977Y003183D02*
X008133Y003339D01*
X008485Y002987D01*
X008329Y002831D01*
X007977Y003183D01*
G37*
G36*
X008200Y003406D02*
X008356Y003562D01*
X008708Y003210D01*
X008552Y003054D01*
X008200Y003406D01*
G37*
G36*
X007309Y002515D02*
X007465Y002671D01*
X007817Y002319D01*
X007661Y002163D01*
X007309Y002515D01*
G37*
G36*
X007086Y002292D02*
X007242Y002448D01*
X007594Y002096D01*
X007438Y001940D01*
X007086Y002292D01*
G37*
G36*
X006863Y002070D02*
X007019Y002226D01*
X007371Y001874D01*
X007215Y001718D01*
X006863Y002070D01*
G37*
G36*
X006641Y001847D02*
X006797Y002003D01*
X007149Y001651D01*
X006993Y001495D01*
X006641Y001847D01*
G37*
D15*
X013841Y003152D03*
X014865Y003152D03*
X014865Y003526D03*
X014865Y003900D03*
X013841Y003900D03*
D16*
X011778Y001586D03*
X011385Y001586D03*
X010991Y001586D03*
X010597Y001586D03*
X010204Y001586D03*
X009810Y001586D03*
D17*
X009298Y000710D03*
X012290Y000710D03*
D18*
X011932Y003054D02*
X011578Y003054D01*
X011578Y003054D01*
X011932Y003054D01*
X011932Y003054D01*
X011932Y003723D02*
X011578Y003723D01*
X011578Y003723D01*
X011932Y003723D01*
X011932Y003723D01*
X011932Y004393D02*
X011578Y004393D01*
X011578Y004393D01*
X011932Y004393D01*
X011932Y004393D01*
X010042Y004393D02*
X009688Y004393D01*
X009688Y004393D01*
X010042Y004393D01*
X010042Y004393D01*
X010042Y003723D02*
X009688Y003723D01*
X009688Y003723D01*
X010042Y003723D01*
X010042Y003723D01*
X010042Y003054D02*
X009688Y003054D01*
X009688Y003054D01*
X010042Y003054D01*
X010042Y003054D01*
M02*
